<?xml version="1.0" encoding="UTF-8"?>
<svg id="Calque_1" xmlns="http://www.w3.org/2000/svg" version="1.1" viewBox="0 0 110 110">
  <!-- Generator: Adobe Illustrator 29.8.2, SVG Export Plug-In . SVG Version: 2.1.1 Build 3)  -->
  <path d="M92.8,0H17.2C7.7,0,0,7.7,0,17.2v75.6c0,9.5,7.7,17.2,17.2,17.2h75.6c9.5,0,17.2-7.7,17.2-17.2V17.2C110,7.7,102.3,0,92.8,0h0ZM103.1,92.8c0,5.7-4.6,10.3-10.3,10.3H17.2c-5.7,0-10.3-4.6-10.3-10.3V17.2c0-5.7,4.6-10.3,10.3-10.3h75.6c5.7,0,10.3,4.6,10.3,10.3v75.6h0ZM89.4,84.2c0,1.9-1.5,3.4-3.4,3.4H24.1c-1.9,0-3.4-1.5-3.4-3.4s1.5-3.4,3.4-3.4h61.9c1.9,0,3.4,1.5,3.4,3.4h0ZM89.4,36.1c0,1.9-1.5,3.4-3.4,3.4h-27.5c-1.9,0-3.4-1.5-3.4-3.4s1.5-3.4,3.4-3.4h27.5c1.9,0,3.4,1.5,3.4,3.4ZM89.4,60.2c0,1.9-1.5,3.4-3.4,3.4H24.1c-1.9,0-3.4-1.5-3.4-3.4s1.5-3.4,3.4-3.4h61.9c1.9,0,3.4,1.5,3.4,3.4h0ZM24.1,43h17.2c1.9,0,3.4-1.5,3.4-3.4v-17.2c0-1.9-1.5-3.4-3.4-3.4h-17.2c-1.9,0-3.4,1.5-3.4,3.4v17.2c0,1.9,1.5,3.4,3.4,3.4ZM27.5,25.8h10.3v10.3h-10.3v-10.3Z"/>
</svg>