<?xml version="1.0" encoding="UTF-8"?>
<svg id="Calque_1" xmlns="http://www.w3.org/2000/svg" version="1.1" viewBox="0 0 83.3 71.4">
  <!-- Generator: Adobe Illustrator 29.8.2, SVG Export Plug-In . SVG Version: 2.1.1 Build 3)  -->
  <path d="M81.3,12.9c1.2,0,2.1-.9,2.1-2.1v-4.6C83.3,2.8,80.6,0,77.1,0H17.1c-3.4,0-6.2,2.8-6.2,6.2v4.6h-4.6c-3.4,0-6.2,2.8-6.2,6.2v36.5c0,3.4,2.8,6.2,6.2,6.2h6.7c-1,2.5-2.5,4.7-4.4,6.6-1,1-1.2,2.4-.5,3.6.7,1.2,2.1,1.7,3.4,1.3,4.6-1.3,13.3-4.6,20.4-11.5h34.5c3.4,0,6.2-2.8,6.2-6.2v-4.6h4.6c3.4,0,6.2-2.8,6.2-6.2v-23.5c0-1.2-.9-2.1-2.1-2.1s-2.1.9-2.1,2.1v23.5c0,1.1-.9,2-2,2h-4.6v-27.6c0-3.4-2.8-6.2-6.2-6.2H15s0-4.6,0-4.6c0-1.1.9-2,2.1-2h60.1c1.1,0,2,.9,2,2v4.6c0,1.2.9,2.1,2.1,2.1h0ZM68.3,17.1v36.5c0,1.1-.9,2-2,2H31.8c-1.1,0-2.1.4-2.9,1.2-4.7,4.6-10.3,7.4-14.6,9.1,1-1.4,1.8-2.9,2.5-4.6,1.2-2.6-1-5.8-3.8-5.7h-6.7c-1.1,0-2-.9-2-2V17.1c0-1.1.9-2,2-2,.9,0,56.8,0,60.1,0,1.1,0,2,.9,2,2h0Z"/>
  <path d="M36.3,52c9.2,0,16.7-7.5,16.7-16.7.1-14.4-17.7-22.1-28.1-12.1-2,1.9.9,4.9,2.9,3,2.3-2.2,5.3-3.4,8.5-3.4,6.9,0,12.5,5.6,12.5,12.5s-5.6,12.5-12.5,12.5c-7.9.1-14.1-7.7-12.1-15.4.3-1.1-.4-2.2-1.5-2.5-3-.5-2.9,3.4-3,5.4,0,9.2,7.5,16.7,16.7,16.7h0Z"/>
  <path d="M27.9,29.7c-1.6,1.1-.7,3.8,1.2,3.8,1.1,0,1.9-1.4,3-.4.9.7,2.2.5,2.9-.4.7-.9.5-2.2-.4-2.9-2.1-1.6-4.6-1.6-6.7,0h0Z"/>
  <path d="M40.3,33c.6-.5,1.1-.5,1.8,0,.9.7,2.2.5,2.9-.4.7-.9.5-2.2-.4-2.9-2.1-1.6-4.6-1.6-6.7,0-2.2,1.6.3,5,2.5,3.3h0Z"/>
  <path d="M32.1,38.6c-.8-.8-2.1-.9-2.9,0-2.8,3.4,4.5,6.2,7.1,6,2.7.2,9.9-2.6,7.1-6-.8-.8-2.1-.8-2.9,0-2.2,2.3-6.1,2.3-8.3,0Z"/>
</svg>